<svg xmlns="http://www.w3.org/2000/svg" width="96.669" height="96.669" viewBox="0 0 96.669 96.669" fill="#fff"><path d="M50.91 55.19l-4.533-3.523c-1.38-1.144-3.27-2.656-3.27-5.422 0-2.778 1.89-4.544 3.527-6.18 5.28-4.157 10.557-8.58 10.557-17.903 0-9.586-6.03-14.63-8.922-17.022h7.795L64.243 0H39.46c-6.802 0-16.604 1.608-23.78 7.533-5.408 4.666-8.046 11.1-8.046 16.892 0 9.83 7.548 19.798 20.88 19.798 1.26 0 2.636-.124 4.022-.252-.623 1.516-1.252 2.778-1.252 4.918 0 3.905 2.006 6.3 3.774 8.567-5.663.39-16.237 1.018-24.033 5.81C3.6 67.678 1.34 74.104 1.34 78.64c0 9.335 8.8 18.03 27.046 18.03 21.636 0 33.09-11.972 33.09-23.824 0-8.707-5.03-12.992-10.566-17.657zm-16.48-14.5c-10.823 0-15.726-13.99-15.726-22.433 0-3.288.623-6.682 2.763-9.333C23.487 6.4 27 4.762 30.28 4.762c10.435 0 15.847 14.118 15.847 23.197 0 2.27-.25 6.295-3.144 9.206-2.023 2.02-5.41 3.525-8.552 3.525zm.125 50.697c-13.46 0-22.14-6.438-22.14-15.392 0-8.95 8.05-11.978 10.817-12.98 5.28-1.776 12.076-2.023 13.21-2.023 1.258 0 1.887 0 2.89.126 9.567 6.81 13.72 10.203 13.72 16.65 0 7.805-6.417 13.62-18.497 13.62zM82.68 40.5V27.893h-6.225V40.5H63.87v6.293h12.585v12.684h6.224V46.793h12.648V40.5"/></svg>