<svg xmlns="http://www.w3.org/2000/svg" preserveAspectRatio="xMidYMid" width="121.938" height="31.313" viewBox="0 0 121.938 31.313"><path d="M80.766 26.594c-2.8 3.15-6.36 4.726-10.684 4.726-4.22 0-7.832-1.523-10.84-4.57-3.008-3.06-4.512-6.732-4.512-11.016 0-4.375 1.53-8.086 4.59-11.132 3.06-3.06 6.784-4.59 11.172-4.59 2.357 0 4.557.48 6.602 1.438 1.953.96 3.873 2.518 5.76 4.675l-3.24 3.105c-2.475-3.294-5.49-4.94-9.044-4.94-3.19 0-5.866 1.1-8.027 3.3-2.162 2.16-3.242 4.87-3.242 8.125 0 3.36 1.206 6.126 3.615 8.3 2.253 2.02 4.694 3.028 7.324 3.028 2.24 0 4.25-.753 6.034-2.26 1.784-1.52 2.78-3.338 2.99-5.455h-7.52V15.05h12.46v.997c0 2.266-.267 4.27-.8 6.016-.522 1.614-1.4 3.124-2.637 4.53zM32.594 31.3c-3.894 0-7.39-1.347-10.49-4.042-3.41-2.982-5.116-6.888-5.116-11.72 0-4.244 1.556-7.89 4.668-10.936 3.1-3.047 6.823-4.57 11.172-4.57 4.297 0 7.982 1.536 11.055 4.61 3.086 3.072 4.63 6.763 4.63 11.073 0 4.336-1.55 8.014-4.65 11.035-3.112 3.034-6.868 4.55-11.27 4.55zM40.7 7.588C38.563 5.4 35.92 4.31 32.77 4.31c-3.14 0-5.788 1.09-7.95 3.277-2.16 2.16-3.242 4.827-3.242 8 0 3.332 1.12 6.07 3.36 8.217 2.226 2.146 4.797 3.22 7.714 3.22 3.164 0 5.833-1.093 8.008-3.28 2.175-2.21 3.262-4.904 3.262-8.078 0-3.213-1.074-5.906-3.223-8.08zM-.013.598h4.55v25.88h8.868v4.276H-.012V.598z" class="logo"/><path d="M117.297 26.75c-3.112 3.034-6.87 4.55-11.27 4.55-3.893 0-7.39-1.347-10.488-4.042-3.414-2.982-5.12-6.888-5.12-11.72 0-4.244 1.557-7.89 4.67-10.936 3.1-3.047 6.822-4.57 11.17-4.57 4.298 0 7.98 1.536 11.055 4.61 3.086 3.072 4.63 6.763 4.63 11.073 0 4.336-1.55 8.014-4.65 11.035zm-3.164-19.163c-2.136-2.186-4.78-3.278-7.93-3.278-3.138 0-5.788 1.09-7.95 3.276-2.16 2.16-3.24 4.827-3.24 8 0 3.332 1.118 6.07 3.358 8.217 2.23 2.146 4.8 3.22 7.717 3.22 3.164 0 5.833-1.093 8.008-3.28 2.174-2.21 3.26-4.904 3.26-8.078 0-3.213-1.073-5.906-3.22-8.08z" class="logo-accent"/></svg>